<svg xmlns="http://www.w3.org/2000/svg" xmlns:xlink="http://www.w3.org/1999/xlink" width="400" zoomAndPan="magnify" viewBox="0 0 300 307.91998" height="400" preserveAspectRatio="xMidYMid meet" version="1.0"><defs><clipPath id="deb974dbb8"><path d="M 71.632812 71.59375 L 228.34375 71.59375 L 228.34375 228.304688 L 71.632812 228.304688 Z M 71.632812 71.59375 " clip-rule="nonzero"/></clipPath></defs><g clip-path="url(#deb974dbb8)"><path fill="#75c9bc" d="M 228.308594 149.921875 C 228.308594 193.191406 193.230469 228.269531 149.960938 228.269531 C 106.6875 228.269531 71.609375 193.191406 71.609375 149.921875 C 71.609375 106.648438 106.6875 71.570312 149.960938 71.570312 C 193.230469 71.570312 228.308594 106.648438 228.308594 149.921875 " fill-opacity="1" fill-rule="nonzero"/></g><path stroke-linecap="round" transform="matrix(0.0586267, 0, 0, -0.0586267, 25.318767, 274.560679)" fill="none" stroke-linejoin="round" d="M 1986.774383 2143.095575 L 1986.774383 1646.508512 L 1683.478487 1646.508512 L 1683.478487 1189.09939 " stroke="#040505" stroke-width="50" stroke-opacity="1" stroke-miterlimit="10"/><path stroke-linecap="round" transform="matrix(0.0586267, 0, 0, -0.0586267, 25.318767, 274.560679)" fill="none" stroke-linejoin="round" d="M 2138.42233 2143.095575 L 2138.42233 1462.478797 L 1986.774383 1462.478797 L 1986.774383 1293.50727 " stroke="#040505" stroke-width="50" stroke-opacity="1" stroke-miterlimit="10"/><path stroke-linecap="round" transform="matrix(0.0586267, 0, 0, -0.0586267, 25.318767, 274.560679)" fill="none" stroke-linejoin="round" d="M 1472.330707 1581.811606 L 1472.330707 1937.411386 L 1775.493345 1937.411386 L 1775.493345 2143.095575 " stroke="#040505" stroke-width="50" stroke-opacity="1" stroke-miterlimit="10"/><path stroke-linecap="round" transform="matrix(0.0586267, 0, 0, -0.0586267, 25.318767, 274.560679)" fill="none" stroke-linejoin="round" d="M 2265.217605 2143.095575 L 2265.217605 1646.508512 L 2568.513501 1646.508512 L 2568.513501 1189.09939 " stroke="#040505" stroke-width="50" stroke-opacity="1" stroke-miterlimit="10"/><path stroke-linecap="round" transform="matrix(0.0586267, 0, 0, -0.0586267, 25.318767, 274.560679)" fill="none" stroke-linejoin="round" d="M 2779.794539 1581.811606 L 2779.794539 1937.411386 L 2476.498643 1937.411386 L 2476.498643 2143.095575 " stroke="#040505" stroke-width="50" stroke-opacity="1" stroke-miterlimit="10"/><path fill="#ffffff" d="M 170.691406 199.640625 C 170.691406 196.761719 173.023438 194.429688 175.902344 194.429688 C 178.78125 194.429688 181.113281 196.761719 181.113281 199.640625 C 181.113281 202.515625 178.78125 204.847656 175.902344 204.847656 C 173.023438 204.847656 170.691406 202.515625 170.691406 199.640625 " fill-opacity="1" fill-rule="nonzero"/><path stroke-linecap="round" transform="matrix(0.0586267, 0, 0, -0.0586267, 25.318767, 274.560679)" fill="none" stroke-linejoin="round" d="M 2479.630213 1277.916048 C 2479.630213 1327.021733 2519.407816 1366.799336 2568.513501 1366.799336 C 2617.619185 1366.799336 2657.396788 1327.021733 2657.396788 1277.916048 C 2657.396788 1228.876993 2617.619185 1189.09939 2568.513501 1189.09939 C 2519.407816 1189.09939 2479.630213 1228.876993 2479.630213 1277.916048 Z M 2479.630213 1277.916048 " stroke="#040505" stroke-width="50" stroke-opacity="1" stroke-miterlimit="10"/><path fill="#ffffff" d="M 136.585938 199.640625 C 136.585938 196.761719 138.917969 194.429688 141.796875 194.429688 C 144.675781 194.429688 147.003906 196.761719 147.003906 199.640625 C 147.003906 202.515625 144.675781 204.847656 141.796875 204.847656 C 138.917969 204.847656 136.585938 202.515625 136.585938 199.640625 " fill-opacity="1" fill-rule="nonzero"/><path stroke-linecap="round" transform="matrix(0.0586267, 0, 0, -0.0586267, 25.318767, 274.560679)" fill="none" stroke-linejoin="round" d="M 1897.891095 1277.916048 C 1897.891095 1327.021733 1937.668698 1366.799336 1986.774383 1366.799336 C 2035.880067 1366.799336 2075.591041 1327.021733 2075.591041 1277.916048 C 2075.591041 1228.876993 2035.880067 1189.09939 1986.774383 1189.09939 C 1937.668698 1189.09939 1897.891095 1228.876993 1897.891095 1277.916048 Z M 1897.891095 1277.916048 " stroke="#040505" stroke-width="50" stroke-opacity="1" stroke-miterlimit="10"/><path fill="#ffffff" d="M 118.804688 203.9375 C 118.804688 201.058594 121.136719 198.726562 124.015625 198.726562 C 126.894531 198.726562 129.222656 201.058594 129.222656 203.9375 C 129.222656 206.816406 126.894531 209.152344 124.015625 209.152344 C 121.136719 209.152344 118.804688 206.816406 118.804688 203.9375 " fill-opacity="1" fill-rule="nonzero"/><path stroke-linecap="round" transform="matrix(0.0586267, 0, 0, -0.0586267, 25.318767, 274.560679)" fill="none" stroke-linejoin="round" d="M 1594.595199 1204.623982 C 1594.595199 1253.729667 1634.372803 1293.50727 1683.478487 1293.50727 C 1732.584171 1293.50727 1772.295145 1253.729667 1772.295145 1204.623982 C 1772.295145 1155.518298 1732.584171 1115.674066 1683.478487 1115.674066 C 1634.372803 1115.674066 1594.595199 1155.518298 1594.595199 1204.623982 Z M 1594.595199 1204.623982 " stroke="#040505" stroke-width="50" stroke-opacity="1" stroke-miterlimit="10"/><path fill="#ffffff" d="M 106.421875 179.257812 C 106.421875 176.378906 108.757812 174.050781 111.636719 174.050781 C 114.507812 174.050781 116.839844 176.378906 116.839844 179.257812 C 116.839844 182.136719 114.507812 184.46875 111.636719 184.46875 C 108.757812 184.46875 106.421875 182.136719 106.421875 179.257812 " fill-opacity="1" fill-rule="nonzero"/><path stroke-linecap="round" transform="matrix(0.0586267, 0, 0, -0.0586267, 25.318767, 274.560679)" fill="none" stroke-linejoin="round" d="M 1383.380791 1625.586959 C 1383.380791 1674.692643 1423.225023 1714.403617 1472.330707 1714.403617 C 1521.303133 1714.403617 1561.080736 1674.692643 1561.080736 1625.586959 C 1561.080736 1576.481274 1521.303133 1536.703671 1472.330707 1536.703671 C 1423.225023 1536.703671 1383.380791 1576.481274 1383.380791 1625.586959 Z M 1383.380791 1625.586959 " stroke="#040505" stroke-width="50" stroke-opacity="1" stroke-miterlimit="10"/><path fill="#ffffff" d="M 183.078125 182.195312 C 183.078125 179.316406 185.410156 176.980469 188.289062 176.980469 C 191.167969 176.980469 193.496094 179.316406 193.496094 182.195312 C 193.496094 185.066406 191.167969 187.40625 188.289062 187.40625 C 185.410156 187.40625 183.078125 185.066406 183.078125 182.195312 " fill-opacity="1" fill-rule="nonzero"/><path stroke-linecap="round" transform="matrix(0.0586267, 0, 0, -0.0586267, 25.318767, 274.560679)" fill="none" stroke-linejoin="round" d="M 2690.911251 1575.481837 C 2690.911251 1624.587521 2730.688854 1664.431754 2779.794539 1664.431754 C 2828.900223 1664.431754 2868.611197 1624.587521 2868.611197 1575.481837 C 2868.611197 1526.509411 2828.900223 1486.59855 2779.794539 1486.59855 C 2730.688854 1486.59855 2690.911251 1526.509411 2690.911251 1575.481837 Z M 2690.911251 1575.481837 " stroke="#040505" stroke-width="50" stroke-opacity="1" stroke-miterlimit="10"/><path fill="#ffffff" d="M 118.789062 152.5625 C 106.59375 152.5625 96.671875 142.644531 96.671875 130.457031 C 96.671875 119.476562 104.929688 110.089844 115.675781 108.566406 C 116.988281 97.625 126.339844 89.222656 137.488281 89.222656 C 143.210938 89.222656 148.726562 91.480469 152.808594 95.449219 C 156.429688 93.003906 160.640625 91.722656 165.0625 91.722656 C 177.171875 91.722656 187.035156 101.578125 187.035156 113.6875 C 187.035156 113.753906 187.035156 113.816406 187.027344 113.882812 C 196.363281 115.441406 203.238281 123.46875 203.238281 133.089844 C 203.238281 143.828125 194.503906 152.5625 183.761719 152.5625 L 118.789062 152.5625 " fill-opacity="1" fill-rule="nonzero"/><path fill="#040505" d="M 137.488281 87.757812 C 125.96875 87.757812 116.25 96.164062 114.378906 107.292969 C 109.4375 108.226562 104.921875 110.722656 101.464844 114.460938 C 97.429688 118.832031 95.207031 124.503906 95.207031 130.457031 C 95.207031 143.453125 105.785156 154.03125 118.789062 154.03125 L 183.761719 154.03125 C 195.3125 154.03125 204.703125 144.636719 204.703125 133.089844 C 204.703125 127.847656 202.765625 122.835938 199.230469 118.964844 C 196.339844 115.804688 192.59375 113.625 188.476562 112.675781 C 187.945312 100.222656 177.644531 90.253906 165.0625 90.253906 C 160.742188 90.253906 156.613281 91.40625 152.972656 93.601562 C 148.714844 89.863281 143.199219 87.757812 137.488281 87.757812 Z M 137.488281 90.691406 C 143.488281 90.691406 148.886719 93.269531 152.636719 97.378906 C 156.085938 94.746094 160.390625 93.1875 165.0625 93.1875 C 176.386719 93.1875 185.570312 102.363281 185.570312 113.6875 C 185.570312 114.179688 185.546875 114.675781 185.511719 115.160156 C 194.636719 116.039062 201.773438 123.730469 201.773438 133.089844 C 201.773438 143.039062 193.710938 151.097656 183.761719 151.097656 L 118.789062 151.097656 C 107.382812 151.097656 98.140625 141.851562 98.140625 130.457031 C 98.140625 119.644531 106.453125 110.78125 117.027344 109.882812 C 117.703125 99.171875 126.609375 90.691406 137.488281 90.691406 " fill-opacity="1" fill-rule="nonzero"/><path stroke-linecap="round" transform="matrix(0.0586267, 0, 0, -0.0586267, 25.318767, 274.560679)" fill="none" stroke-linejoin="round" d="M 1997.16853 2586.312688 C 1997.16853 2469.378528 2091.915183 2374.698504 2208.782714 2374.698504 " stroke="#040505" stroke-width="50" stroke-opacity="1" stroke-miterlimit="10"/><path stroke-linecap="round" transform="matrix(0.0586267, 0, 0, -0.0586267, 25.318767, 274.560679)" fill="none" stroke-linejoin="round" d="M 2044.875002 2446.524729 C 1881.300436 2527.012743 1683.478487 2459.584042 1602.990472 2296.076106 " stroke="#040505" stroke-width="50" stroke-opacity="1" stroke-miterlimit="10"/><path stroke-linecap="round" transform="matrix(0.0586267, 0, 0, -0.0586267, 25.318767, 274.560679)" fill="none" stroke-linejoin="round" d="M 2417.331957 2907.531825 C 2288.404549 3036.525861 2079.388903 3036.525861 1950.528124 2907.531825 " stroke="#040505" stroke-width="50" stroke-opacity="1" stroke-miterlimit="10"/><path stroke-linecap="round" transform="matrix(0.0586267, 0, 0, -0.0586267, 25.318767, 274.560679)" fill="none" stroke-linejoin="round" d="M 2970.020765 2290.812403 C 2970.020765 2398.418482 2882.669948 2485.70267 2775.130498 2485.70267 C 2667.524419 2485.70267 2580.173602 2398.418482 2580.173602 2290.812403 " stroke="#040505" stroke-width="50" stroke-opacity="1" stroke-miterlimit="10"/></svg>