<svg xmlns="http://www.w3.org/2000/svg" xmlns:xlink="http://www.w3.org/1999/xlink" width="400" zoomAndPan="magnify" viewBox="0 0 300 307.91998" height="400" preserveAspectRatio="xMidYMid meet" version="1.0"><defs><clipPath id="bfd5432910"><path d="M 98 47.128906 L 206.339844 47.128906 L 206.339844 236 L 98 236 Z M 98 47.128906 " clip-rule="nonzero"/></clipPath></defs><path fill="#000000" d="M 109.367188 168.601562 L 192.667969 214.8125 C 200.890625 219.375 193.367188 223.808594 185.394531 219.386719 L 102.09375 173.179688 C 93.871094 168.617188 101.394531 164.183594 109.367188 168.601562 Z M 109.367188 168.601562 " fill-opacity="0.2" fill-rule="evenodd"/><path fill="#ffffff" d="M 99.730469 56.882812 C 99.722656 56.988281 99.714844 57.09375 99.714844 57.199219 L 99.71875 57.214844 C 99.714844 57.25 99.714844 57.289062 99.714844 57.324219 L 99.714844 146.34375 C 99.714844 150.707031 102.042969 154.738281 105.824219 156.921875 L 190.894531 205.804688 C 193.285156 207.183594 196.023438 206.746094 197.882812 205.199219 C 201.507812 203.984375 205.085938 200.792969 205.085938 197.734375 L 205.085938 108.730469 C 205.085938 104.367188 202.757812 100.335938 198.976562 98.152344 L 114.769531 48.546875 C 112.347656 47.148438 106.941406 49.261719 103.644531 51.617188 C 101.539062 52.429688 99.902344 54.375 99.730469 56.882812 Z M 99.730469 56.882812 " fill-opacity="1" fill-rule="nonzero"/><path fill="#aaa9c8" d="M 115.523438 91.636719 C 111.914062 89.664062 107.410156 92.132812 107.410156 96.082031 L 107.410156 102.238281 C 107.410156 105.90625 109.476562 109.296875 112.828125 111.128906 L 183.460938 149.722656 C 183.992188 150.011719 184.496094 150.359375 185.015625 150.671875 C 188.707031 152.910156 192.375 151.0625 192.375 145.714844 L 192.375 139.554688 C 192.375 135.886719 190.308594 132.5 186.957031 130.667969 Z M 115.523438 91.636719 " fill-opacity="1" fill-rule="nonzero"/><path fill="#aaa9c8" d="M 115.644531 124.332031 C 112.046875 122.367188 107.554688 124.824219 107.554688 128.757812 L 107.554688 134.898438 C 107.554688 138.554688 109.613281 141.929688 112.957031 143.753906 L 183.34375 182.214844 C 183.875 182.503906 184.375 182.851562 184.894531 183.164062 C 188.570312 185.390625 192.230469 183.550781 192.230469 178.222656 L 192.230469 172.085938 C 192.230469 168.429688 190.171875 165.050781 186.828125 163.226562 Z M 115.644531 124.332031 " fill-opacity="1" fill-rule="nonzero"/><path fill="#ffffff" d="M 157.414062 193.675781 C 173.195312 204.71875 191.46875 194.515625 193.660156 179.433594 C 195.847656 164.347656 184.378906 140.984375 168.59375 129.945312 C 152.816406 118.902344 131.347656 127.875 129.15625 142.960938 C 126.96875 158.046875 141.632812 182.636719 157.414062 193.675781 Z M 160.992188 179.835938 C 172.65625 188.421875 183.425781 185.875 185.042969 174.140625 C 186.660156 162.40625 177.863281 149.917969 166.199219 141.332031 C 154.535156 132.742188 144.421875 131.304688 142.804688 143.039062 C 141.183594 154.773438 149.328125 171.246094 160.992188 179.835938 Z M 160.992188 179.835938 " fill-opacity="1" fill-rule="evenodd"/><path fill="#aaa9c8" d="M 172.863281 198.160156 C 177.117188 198.03125 180.882812 196.660156 183.738281 194.164062 L 194.960938 226.148438 C 196.023438 229.183594 194.441406 232.507812 191.429688 233.578125 C 188.414062 234.648438 185.109375 233.058594 184.042969 230.027344 Z M 172.863281 198.160156 " fill-opacity="1" fill-rule="nonzero"/><path fill="#9f72f5" d="M 154.410156 190.746094 C 170.191406 201.789062 186.875 197.722656 189.066406 182.636719 C 191.253906 167.550781 179.070312 144.632812 163.289062 133.589844 C 147.507812 122.546875 131.015625 127.285156 128.824219 142.371094 C 126.636719 157.453125 138.628906 179.703125 154.410156 190.746094 Z M 156.703125 182.347656 C 168.367188 190.9375 176.945312 189.503906 178.5625 177.769531 C 180.179688 166.035156 173.042969 150.863281 161.378906 142.273438 C 149.714844 133.683594 140.847656 135.691406 139.230469 147.425781 C 137.613281 159.160156 145.035156 173.761719 156.703125 182.347656 Z M 156.703125 182.347656 " fill-opacity="1" fill-rule="evenodd"/><path fill="#000000" d="M 116.023438 67.671875 C 116.023438 69.484375 114.339844 70.125 112.261719 69.105469 C 110.183594 68.089844 108.496094 65.796875 108.496094 63.984375 C 108.496094 62.175781 110.183594 61.535156 112.261719 62.550781 C 114.339844 63.570312 116.023438 65.863281 116.023438 67.671875 Z M 116.023438 67.671875 " fill-opacity="1" fill-rule="nonzero"/><path fill="#000000" d="M 128.566406 75.195312 C 128.566406 77.007812 126.882812 77.648438 124.804688 76.628906 C 122.726562 75.613281 121.042969 73.320312 121.042969 71.507812 C 121.042969 69.699219 122.726562 69.054688 124.804688 70.074219 C 126.882812 71.09375 128.566406 73.386719 128.566406 75.195312 Z M 128.566406 75.195312 " fill-opacity="1" fill-rule="nonzero"/><path fill="#000000" d="M 162.125 142.425781 C 156.195312 138.0625 150.675781 136.148438 146.253906 137.167969 C 141.671875 138.226562 138.835938 142.277344 137.988281 148.417969 C 136.289062 160.726562 144.03125 175.738281 155.957031 184.519531 C 161.863281 188.867188 167.300781 190.929688 171.644531 190.070312 C 176.199219 189.171875 178.960938 185.230469 179.804688 179.101562 C 181.5 166.824219 174.078125 151.230469 162.125 142.425781 Z M 172.375 157.789062 C 175.871094 163.917969 177.757812 170.617188 177.515625 176.546875 L 147.039062 159.894531 C 144.507812 154.058594 143.367188 148.136719 144.046875 143.210938 C 144.085938 142.925781 144.128906 142.648438 144.179688 142.382812 Z M 169.484375 153.351562 C 167.003906 149.992188 164.019531 146.9375 160.636719 144.445312 C 154.898438 140.21875 150.15625 138.84375 146.820312 139.613281 C 146.296875 139.734375 145.796875 139.910156 145.320312 140.148438 Z M 148.941406 163.792969 L 177.246094 179.257812 C 176.976562 180.941406 176.5625 182.34375 176.023438 183.488281 C 172.21875 184.191406 167.179688 182.832031 161.738281 178.824219 C 156.59375 175.039062 152.128906 169.640625 148.941406 163.792969 Z M 148.941406 163.792969 " fill-opacity="1" fill-rule="evenodd"/><g clip-path="url(#bfd5432910)"><path fill="#000000" d="M 104.644531 49.886719 C 101.199219 50.917969 98.460938 54.0625 98.460938 58.15625 L 98.460938 145.90625 C 98.460938 151.167969 101.269531 156.027344 105.824219 158.65625 L 138.550781 177.558594 C 142.792969 183.546875 147.992188 188.945312 153.691406 192.933594 C 155.171875 193.96875 156.664062 194.878906 158.15625 195.664062 C 162.753906 198.5 167.511719 199.683594 172.027344 199.574219 L 182.855469 230.445312 C 184.148438 234.125 188.167969 236.066406 191.84375 234.761719 C 195.515625 233.460938 197.429688 229.417969 196.140625 225.738281 L 189.53125 206.898438 C 192.089844 207.925781 194.816406 207.605469 197 206.351562 C 198.171875 206 199.316406 205.484375 200.363281 204.867188 C 201.902344 203.960938 203.339844 202.769531 204.421875 201.386719 C 205.03125 200.605469 205.574219 199.703125 205.925781 198.714844 C 206.191406 198.078125 206.34375 197.429688 206.34375 196.789062 L 206.339844 108.621094 C 206.339844 103.363281 203.535156 98.503906 198.980469 95.871094 L 116.417969 48.1875 C 114.667969 47.175781 112.582031 47.160156 110.792969 47.476562 C 108.941406 47.800781 107.03125 48.539062 105.316406 49.496094 C 105.089844 49.621094 104.867188 49.75 104.644531 49.886719 Z M 188.300781 203.398438 L 189.640625 204.171875 C 193.714844 206.527344 198.816406 203.585938 198.816406 198.882812 L 198.816406 111.128906 C 198.816406 106.769531 196.484375 102.734375 192.707031 100.550781 L 110.148438 52.867188 C 108.6875 52.023438 107.09375 51.859375 105.65625 52.210938 C 105.394531 52.375 105.144531 52.546875 104.898438 52.722656 C 102.792969 53.535156 101.160156 55.480469 100.984375 57.988281 C 100.976562 58.09375 100.96875 58.199219 100.96875 58.304688 L 100.972656 58.320312 L 100.972656 58.367188 L 100.96875 58.429688 L 100.96875 145.90625 C 100.96875 150.269531 103.300781 154.300781 107.078125 156.484375 L 135.515625 172.910156 C 134.90625 171.890625 134.324219 170.859375 133.773438 169.824219 C 130.675781 164.003906 128.503906 157.90625 127.679688 152.175781 L 111.585938 143.382812 C 108.125 141.492188 105.988281 137.988281 105.988281 134.199219 L 105.988281 127.832031 C 105.988281 123.753906 110.644531 121.203125 114.375 123.238281 L 132.3125 133.039062 C 132.371094 132.976562 132.433594 132.914062 132.492188 132.847656 C 134.664062 130.289062 137.457031 128.175781 140.601562 126.640625 L 111.585938 110.785156 C 108.125 108.890625 105.988281 105.390625 105.988281 101.597656 L 105.988281 95.234375 C 105.988281 91.15625 110.644531 88.601562 114.375 90.640625 L 188.199219 130.976562 C 191.660156 132.871094 193.796875 136.371094 193.796875 140.164062 L 193.796875 146.527344 C 193.796875 150.671875 191.660156 152.785156 188.984375 152.605469 L 188.988281 152.609375 C 193.617188 161.839844 196.046875 171.71875 194.902344 179.613281 C 193.984375 185.9375 190.398438 191.4375 185.375 195.058594 Z M 187.253906 149.359375 C 187.34375 149.417969 187.425781 149.46875 187.492188 149.507812 C 188.84375 150.328125 189.703125 150.144531 190.105469 149.894531 C 190.535156 149.628906 191.289062 148.769531 191.289062 146.527344 L 191.289062 140.164062 C 191.289062 137.335938 189.695312 134.652344 186.996094 133.175781 L 113.171875 92.839844 C 110.917969 91.609375 108.496094 93.28125 108.496094 95.234375 L 108.496094 101.597656 C 108.496094 104.425781 110.089844 107.109375 112.792969 108.585938 L 143.566406 125.398438 C 151.484375 122.609375 161.132812 123.191406 169.316406 128.917969 C 176.457031 133.914062 182.695312 141.332031 187.253906 149.359375 Z M 130.71875 135.027344 L 113.171875 125.441406 C 110.917969 124.207031 108.496094 125.878906 108.496094 127.832031 L 108.496094 134.199219 C 108.496094 137.027344 110.089844 139.707031 112.792969 141.183594 L 127.371094 149.148438 C 127.25 147.144531 127.316406 145.199219 127.585938 143.351562 C 128.050781 140.128906 129.140625 137.335938 130.71875 135.027344 Z M 201.324219 132.757812 L 203.832031 131.265625 L 203.832031 108.621094 C 203.832031 104.257812 201.503906 100.226562 197.722656 98.042969 L 115.164062 50.359375 C 113.9375 49.652344 112.167969 49.660156 110.289062 50.152344 C 110.664062 50.304688 111.035156 50.484375 111.402344 50.695312 L 193.960938 98.382812 C 198.515625 101.011719 201.324219 105.871094 201.324219 111.128906 Z M 183.203125 196.449219 C 180.589844 197.9375 177.679688 198.953125 174.613281 199.367188 L 185.222656 229.613281 C 186.058594 231.996094 188.652344 233.234375 191.003906 232.398438 C 193.363281 231.5625 194.609375 228.953125 193.773438 226.570312 Z M 187.824219 183.617188 C 187.230469 187.710938 185.507812 190.90625 183.011719 193.132812 L 182.90625 193.226562 C 180.304688 195.503906 176.828125 196.789062 172.820312 196.910156 L 172.644531 196.917969 C 167.375 197.035156 161.230469 195.148438 155.128906 190.878906 C 147.425781 185.488281 140.605469 177.328125 135.988281 168.648438 C 131.355469 159.941406 129.027344 150.886719 130.066406 143.710938 C 131.09375 136.648438 135.414062 132.113281 141.28125 130.554688 C 147.210938 128.984375 154.902344 130.414062 162.570312 135.78125 C 170.269531 141.167969 177.136719 149.492188 181.804688 158.34375 C 186.488281 167.21875 188.863281 176.441406 187.824219 183.617188 Z M 189.71875 186.746094 C 189.96875 185.867188 190.164062 184.941406 190.304688 183.976562 C 191.453125 176.066406 188.832031 166.285156 184.023438 157.175781 C 179.203125 148.035156 172.089844 139.378906 164.007812 133.726562 C 157.671875 129.292969 151.132812 127.269531 145.328125 127.457031 C 152.375 125.273438 160.734375 125.972656 167.875 130.96875 C 175.5625 136.347656 182.25 144.769531 186.746094 153.734375 C 191.25 162.714844 193.460938 172.058594 192.417969 179.25 C 192.027344 181.949219 191.085938 184.484375 189.71875 186.746094 Z M 189.71875 186.746094 " fill-opacity="1" fill-rule="evenodd"/></g></svg>