<svg xmlns="http://www.w3.org/2000/svg" xmlns:xlink="http://www.w3.org/1999/xlink" width="400" zoomAndPan="magnify" viewBox="0 0 300 307.91998" height="400" preserveAspectRatio="xMidYMid meet" version="1.0"><defs><clipPath id="3862300c7f"><path d="M 94 99.53125 L 235 99.53125 L 235 194 L 94 194 Z M 94 99.53125 " clip-rule="nonzero"/></clipPath><clipPath id="7affadf58e"><path d="M 78 195 L 250.835938 195 L 250.835938 200.753906 L 78 200.753906 Z M 78 195 " clip-rule="nonzero"/></clipPath><clipPath id="4b28517f14"><path d="M 78 193 L 250.835938 193 L 250.835938 196 L 78 196 Z M 78 193 " clip-rule="nonzero"/></clipPath><clipPath id="1b226e5016"><path d="M 49.140625 114 L 108 114 L 108 200.753906 L 49.140625 200.753906 Z M 49.140625 114 " clip-rule="nonzero"/></clipPath></defs><g clip-path="url(#3862300c7f)"><path fill="#34495e" d="M 234.882812 188.480469 C 234.882812 189.671875 234.429688 190.875 233.523438 191.78125 C 232.609375 192.703125 231.421875 193.152344 230.226562 193.152344 L 98.867188 193.152344 C 97.679688 193.152344 96.488281 192.703125 95.570312 191.78125 C 94.671875 190.875 94.214844 189.671875 94.214844 188.480469 L 94.214844 104.214844 C 94.214844 103.015625 94.671875 101.824219 95.570312 100.910156 C 96.488281 100.007812 97.679688 99.546875 98.867188 99.546875 L 230.226562 99.546875 C 231.421875 99.546875 232.609375 100.007812 233.523438 100.910156 C 234.425781 101.824219 234.882812 103.015625 234.882812 104.214844 Z M 234.882812 188.480469 " fill-opacity="1" fill-rule="nonzero"/></g><path fill="#283a4d" d="M 166.125 103.210938 C 166.125 104.09375 165.417969 104.808594 164.550781 104.808594 C 163.667969 104.808594 162.96875 104.09375 162.96875 103.210938 C 162.96875 102.335938 163.671875 101.636719 164.550781 101.636719 C 165.417969 101.632812 166.125 102.335938 166.125 103.210938 Z M 166.125 103.210938 " fill-opacity="1" fill-rule="nonzero"/><path fill="#5d6d7e" d="M 165.195312 103.21875 C 165.195312 103.578125 164.902344 103.871094 164.550781 103.871094 C 164.191406 103.871094 163.902344 103.578125 163.902344 103.21875 C 163.902344 102.863281 164.195312 102.578125 164.550781 102.578125 C 164.902344 102.578125 165.195312 102.863281 165.195312 103.21875 Z M 165.195312 103.21875 " fill-opacity="1" fill-rule="nonzero"/><g clip-path="url(#7affadf58e)"><path fill="#cee2f2" d="M 250.835938 195.886719 C 248.332031 198.792969 244.617188 200.636719 240.488281 200.636719 L 88.609375 200.636719 C 84.480469 200.636719 80.769531 198.792969 78.265625 195.886719 Z M 250.835938 195.886719 " fill-opacity="1" fill-rule="nonzero"/></g><g clip-path="url(#4b28517f14)"><path fill="#f2f9fd" d="M 250.832031 195.898438 L 78.265625 195.898438 L 78.265625 193.9375 C 78.265625 193.734375 78.34375 193.535156 78.496094 193.378906 C 78.648438 193.226562 78.851562 193.148438 79.046875 193.148438 L 250.046875 193.148438 C 250.25 193.148438 250.449219 193.226562 250.601562 193.378906 C 250.753906 193.535156 250.832031 193.734375 250.832031 193.9375 Z M 250.832031 195.898438 " fill-opacity="1" fill-rule="nonzero"/></g><path fill="#b8d1e6" d="M 180.578125 193.613281 C 180.578125 193.851562 180.484375 194.089844 180.300781 194.277344 C 180.125 194.449219 179.890625 194.539062 179.652344 194.539062 L 149.445312 194.539062 C 149.210938 194.539062 148.972656 194.449219 148.800781 194.277344 C 148.613281 194.089844 148.527344 193.851562 148.527344 193.613281 L 148.527344 193.152344 L 180.578125 193.152344 C 180.578125 193.152344 180.578125 193.613281 180.578125 193.613281 Z M 180.578125 193.613281 " fill-opacity="1" fill-rule="nonzero"/><path fill="#ffffff" d="M 101.535156 106.742188 L 227.558594 106.742188 L 227.558594 185.804688 L 101.535156 185.804688 Z M 101.535156 106.742188 " fill-opacity="1" fill-rule="nonzero"/><path fill="#ff8e31" d="M 106.777344 111.167969 L 141.640625 111.167969 L 141.640625 121.660156 L 106.777344 121.660156 Z M 106.777344 111.167969 " fill-opacity="1" fill-rule="nonzero"/><path fill="#e1effa" d="M 147.117188 111.167969 L 223.148438 111.167969 L 223.148438 121.660156 L 147.117188 121.660156 Z M 147.117188 111.167969 " fill-opacity="1" fill-rule="nonzero"/><path fill="#e1effa" d="M 105.941406 170.359375 L 223.148438 170.359375 L 223.148438 173.816406 L 105.941406 173.816406 Z M 105.941406 170.359375 " fill-opacity="1" fill-rule="nonzero"/><path fill="#e1effa" d="M 105.941406 177.921875 L 223.148438 177.921875 L 223.148438 181.371094 L 105.941406 181.371094 Z M 105.941406 177.921875 " fill-opacity="1" fill-rule="nonzero"/><path fill="#d0e070" d="M 105.941406 146.296875 L 140.808594 146.296875 L 140.808594 166.257812 L 105.941406 166.257812 Z M 105.941406 146.296875 " fill-opacity="1" fill-rule="nonzero"/><path fill="#d0e070" d="M 147.113281 146.296875 L 181.980469 146.296875 L 181.980469 166.257812 L 147.113281 166.257812 Z M 147.113281 146.296875 " fill-opacity="1" fill-rule="nonzero"/><path fill="#d0e070" d="M 188.28125 146.296875 L 223.148438 146.296875 L 223.148438 166.257812 L 188.28125 166.257812 Z M 188.28125 146.296875 " fill-opacity="1" fill-rule="nonzero"/><path fill="#b8d1e6" d="M 105.941406 125.765625 L 223.148438 125.765625 L 223.148438 142.191406 L 105.941406 142.191406 Z M 105.941406 125.765625 " fill-opacity="1" fill-rule="nonzero"/><path fill="#2f445c" d="M 185.554688 193.152344 L 98.867188 193.152344 C 97.675781 193.152344 96.480469 192.695312 95.570312 191.78125 C 94.675781 190.867188 94.207031 189.671875 94.207031 188.472656 L 94.207031 113.828125 L 101.535156 113.828125 L 101.535156 185.808594 L 178.238281 185.808594 Z M 185.554688 193.152344 " fill-opacity="1" fill-rule="nonzero"/><path fill="#e2eff9" d="M 178.238281 185.808594 L 101.535156 185.808594 L 101.535156 113.828125 L 104.753906 113.828125 C 105.488281 113.828125 106.179688 114.015625 106.777344 114.332031 L 106.777344 121.65625 L 114.3125 121.65625 L 118.40625 125.769531 L 105.945312 125.769531 L 105.945312 142.1875 L 134.761719 142.1875 L 138.859375 146.296875 L 105.945312 146.296875 L 105.945312 166.257812 L 140.804688 166.257812 L 140.804688 148.25 L 147.113281 154.582031 L 147.113281 166.257812 L 158.761719 166.257812 L 162.84375 170.355469 L 105.945312 170.355469 L 105.945312 173.820312 L 166.292969 173.820312 L 170.378906 177.917969 L 105.945312 177.917969 L 105.945312 181.367188 L 173.8125 181.367188 Z M 178.238281 185.808594 " fill-opacity="1" fill-rule="nonzero"/><path fill="#e28430" d="M 114.3125 121.65625 L 106.777344 121.65625 L 106.777344 114.332031 C 107.078125 114.503906 107.359375 114.691406 107.609375 114.914062 L 108.003906 115.324219 Z M 114.3125 121.65625 " fill-opacity="1" fill-rule="nonzero"/><path fill="#a2c4e1" d="M 134.761719 142.1875 L 105.945312 142.1875 L 105.945312 125.769531 L 118.410156 125.769531 Z M 134.761719 142.1875 " fill-opacity="1" fill-rule="nonzero"/><path fill="#b8d26e" d="M 140.804688 148.25 L 140.804688 166.257812 L 105.945312 166.257812 L 105.945312 146.296875 L 138.859375 146.296875 Z M 140.804688 148.25 " fill-opacity="1" fill-rule="nonzero"/><path fill="#c7e0f6" d="M 166.296875 173.820312 L 105.945312 173.820312 L 105.945312 170.355469 L 162.84375 170.355469 Z M 166.296875 173.820312 " fill-opacity="1" fill-rule="nonzero"/><path fill="#c7e0f6" d="M 173.8125 181.367188 L 105.945312 181.367188 L 105.945312 177.917969 L 170.375 177.917969 Z M 173.8125 181.367188 " fill-opacity="1" fill-rule="nonzero"/><path fill="#b8d26e" d="M 158.761719 166.257812 L 147.113281 166.257812 L 147.113281 154.585938 Z M 158.761719 166.257812 " fill-opacity="1" fill-rule="nonzero"/><g clip-path="url(#1b226e5016)"><path fill="#34495e" d="M 49.140625 118.1875 C 49.140625 116.421875 50.574219 114.972656 52.335938 114.972656 L 104.75 114.972656 C 106.511719 114.972656 107.949219 116.421875 107.949219 118.1875 L 107.949219 197.429688 C 107.949219 199.199219 106.511719 200.636719 104.75 200.636719 L 52.335938 200.636719 C 50.574219 200.636719 49.140625 199.199219 49.140625 197.429688 Z M 49.140625 118.1875 " fill-opacity="1" fill-rule="nonzero"/></g><path fill="#283a4d" d="M 75.304688 197.058594 C 74.519531 197.058594 73.878906 196.417969 73.878906 195.628906 L 73.878906 195.277344 C 73.878906 194.488281 74.519531 193.847656 75.304688 193.847656 L 81.792969 193.847656 C 82.570312 193.847656 83.210938 194.488281 83.210938 195.277344 L 83.210938 195.628906 C 83.210938 196.417969 82.570312 197.058594 81.792969 197.058594 Z M 75.304688 197.058594 " fill-opacity="1" fill-rule="nonzero"/><path fill="#283a4d" d="M 78.539062 120.628906 C 77.730469 120.628906 77.085938 119.976562 77.085938 119.152344 C 77.085938 118.351562 77.730469 117.683594 78.539062 117.683594 C 79.347656 117.683594 80.007812 118.351562 80.007812 119.152344 C 80.007812 119.972656 79.347656 120.628906 78.539062 120.628906 Z M 78.539062 120.628906 " fill-opacity="1" fill-rule="nonzero"/><path fill="#5d6d7e" d="M 78.542969 119.773438 C 78.203125 119.773438 77.933594 119.5 77.933594 119.15625 C 77.933594 118.820312 78.203125 118.542969 78.542969 118.542969 C 78.878906 118.542969 79.15625 118.820312 79.15625 119.15625 C 79.15625 119.5 78.882812 119.773438 78.542969 119.773438 Z M 78.542969 119.773438 " fill-opacity="1" fill-rule="nonzero"/><path fill="#ffffff" d="M 52.472656 123.339844 L 104.609375 123.339844 L 104.609375 190.269531 L 52.472656 190.269531 Z M 52.472656 123.339844 " fill-opacity="1" fill-rule="nonzero"/><path fill="#ff8e31" d="M 56.289062 127.175781 L 76.691406 127.175781 L 76.691406 135.105469 L 56.289062 135.105469 Z M 56.289062 127.175781 " fill-opacity="1" fill-rule="nonzero"/><path fill="#e1effa" d="M 80.386719 127.175781 L 100.789062 127.175781 L 100.789062 135.105469 L 80.386719 135.105469 Z M 80.386719 127.175781 " fill-opacity="1" fill-rule="nonzero"/><path fill="#e1effa" d="M 56.289062 178.113281 L 100.789062 178.113281 L 100.789062 180.71875 L 56.289062 180.71875 Z M 56.289062 178.113281 " fill-opacity="1" fill-rule="nonzero"/><path fill="#e1effa" d="M 56.289062 183.820312 L 100.789062 183.820312 L 100.789062 186.433594 L 56.289062 186.433594 Z M 56.289062 183.820312 " fill-opacity="1" fill-rule="nonzero"/><path fill="#d0e070" d="M 56.289062 155.847656 L 76.691406 155.847656 L 76.691406 175.007812 L 56.289062 175.007812 Z M 56.289062 155.847656 " fill-opacity="1" fill-rule="nonzero"/><path fill="#d0e070" d="M 80.386719 155.847656 L 100.789062 155.847656 L 100.789062 175.007812 L 80.386719 175.007812 Z M 80.386719 155.847656 " fill-opacity="1" fill-rule="nonzero"/><path fill="#b8d1e6" d="M 56.289062 138.207031 L 100.789062 138.207031 L 100.789062 152.753906 L 56.289062 152.753906 Z M 56.289062 138.207031 " fill-opacity="1" fill-rule="nonzero"/></svg>