<svg xmlns="http://www.w3.org/2000/svg" xmlns:xlink="http://www.w3.org/1999/xlink" width="400" zoomAndPan="magnify" viewBox="0 0 300 307.91998" height="400" preserveAspectRatio="xMidYMid meet" version="1.0"><defs><clipPath id="5ebffca7c9"><path d="M 63.503906 105 L 125 105 L 125 195 L 63.503906 195 Z M 63.503906 105 " clip-rule="nonzero"/></clipPath><clipPath id="80ff8c6766"><path d="M 175 105 L 236.710938 105 L 236.710938 195 L 175 195 Z M 175 105 " clip-rule="nonzero"/></clipPath><clipPath id="c54cc56229"><path d="M 119 82.808594 L 180 82.808594 L 180 217.023438 L 119 217.023438 Z M 119 82.808594 " clip-rule="nonzero"/></clipPath></defs><path fill="#6db5e7" d="M 118.148438 192.238281 C 117.191406 192.238281 116.25 191.917969 115.496094 191.320312 L 67.054688 153.28125 C 66.015625 152.464844 65.417969 151.238281 65.417969 149.917969 C 65.417969 148.597656 66.015625 147.371094 67.054688 146.546875 L 115.496094 108.515625 C 116.25 107.917969 117.191406 107.597656 118.148438 107.597656 C 119.472656 107.597656 120.707031 108.1875 121.519531 109.230469 C 122.226562 110.125 122.550781 111.25 122.410156 112.382812 C 122.277344 113.519531 121.699219 114.53125 120.800781 115.242188 L 76.652344 149.917969 L 120.800781 184.585938 C 121.699219 185.300781 122.277344 186.316406 122.410156 187.445312 C 122.550781 188.585938 122.226562 189.699219 121.519531 190.605469 C 120.707031 191.640625 119.472656 192.238281 118.148438 192.238281 " fill-opacity="1" fill-rule="nonzero"/><g clip-path="url(#5ebffca7c9)"><path fill="#224c8d" d="M 118.148438 105.773438 C 116.78125 105.773438 115.445312 106.230469 114.371094 107.078125 L 65.925781 145.117188 C 64.4375 146.292969 63.589844 148.035156 63.589844 149.917969 C 63.589844 151.800781 64.445312 153.550781 65.925781 154.71875 L 114.371094 192.757812 C 115.4375 193.59375 116.78125 194.0625 118.148438 194.0625 C 120.042969 194.0625 121.796875 193.210938 122.957031 191.726562 C 123.972656 190.453125 124.417969 188.855469 124.230469 187.234375 C 124.03125 185.617188 123.222656 184.164062 121.933594 183.15625 L 79.605469 149.917969 L 121.933594 116.675781 C 123.222656 115.664062 124.03125 114.21875 124.230469 112.601562 C 124.417969 110.980469 123.972656 109.382812 122.957031 108.097656 C 121.796875 106.617188 120.035156 105.773438 118.148438 105.773438 Z M 118.148438 109.417969 C 118.878906 109.417969 119.605469 109.742188 120.085938 110.351562 C 120.933594 111.425781 120.742188 112.972656 119.675781 113.8125 L 73.695312 149.917969 L 119.675781 186.023438 C 120.742188 186.863281 120.933594 188.410156 120.085938 189.472656 C 119.605469 190.09375 118.878906 190.414062 118.148438 190.414062 C 117.617188 190.414062 117.082031 190.246094 116.628906 189.890625 L 68.183594 151.851562 C 67.59375 151.382812 67.246094 150.667969 67.246094 149.917969 C 67.246094 149.160156 67.59375 148.453125 68.183594 147.984375 L 116.628906 109.945312 C 117.074219 109.585938 117.617188 109.417969 118.148438 109.417969 " fill-opacity="1" fill-rule="nonzero"/></g><path fill="#6db5e7" d="M 182.066406 192.238281 C 180.742188 192.238281 179.515625 191.640625 178.691406 190.605469 C 177.226562 188.753906 177.550781 186.054688 179.414062 184.585938 L 223.570312 149.917969 L 179.414062 115.242188 C 177.550781 113.78125 177.226562 111.082031 178.691406 109.230469 C 179.515625 108.1875 180.742188 107.597656 182.066406 107.597656 C 183.023438 107.597656 183.964844 107.917969 184.71875 108.515625 L 233.164062 146.546875 C 234.203125 147.371094 234.792969 148.597656 234.792969 149.917969 C 234.792969 151.238281 234.203125 152.464844 233.15625 153.28125 L 184.71875 191.320312 C 183.964844 191.917969 183.023438 192.238281 182.066406 192.238281 " fill-opacity="1" fill-rule="nonzero"/><g clip-path="url(#80ff8c6766)"><path fill="#224c8d" d="M 182.066406 105.773438 C 180.179688 105.773438 178.425781 106.617188 177.257812 108.097656 C 175.167969 110.746094 175.628906 114.589844 178.28125 116.675781 L 220.609375 149.917969 L 178.28125 183.15625 C 175.628906 185.238281 175.167969 189.085938 177.257812 191.726562 C 178.425781 193.210938 180.179688 194.0625 182.066406 194.0625 C 183.433594 194.0625 184.769531 193.59375 185.84375 192.757812 L 234.289062 154.71875 C 235.773438 153.550781 236.621094 151.800781 236.621094 149.917969 C 236.621094 148.035156 235.773438 146.292969 234.296875 145.117188 L 185.851562 107.078125 C 184.777344 106.230469 183.433594 105.773438 182.066406 105.773438 Z M 182.066406 109.417969 C 182.601562 109.417969 183.140625 109.585938 183.585938 109.945312 L 232.03125 147.984375 C 232.625 148.453125 232.96875 149.160156 232.96875 149.917969 C 232.96875 150.667969 232.625 151.382812 232.03125 151.851562 L 183.585938 189.890625 C 183.140625 190.246094 182.601562 190.414062 182.066406 190.414062 C 181.335938 190.414062 180.613281 190.09375 180.128906 189.472656 C 179.289062 188.410156 179.472656 186.863281 180.539062 186.023438 L 226.523438 149.917969 L 180.539062 113.808594 C 179.472656 112.972656 179.289062 111.425781 180.128906 110.351562 C 180.613281 109.742188 181.34375 109.417969 182.066406 109.417969 " fill-opacity="1" fill-rule="nonzero"/></g><path fill="#6db5e7" d="M 126.035156 215.195312 C 125.5 215.195312 124.984375 215.09375 124.484375 214.902344 C 123.417969 214.488281 122.570312 213.683594 122.109375 212.640625 C 121.644531 211.589844 121.621094 210.429688 122.03125 209.367188 L 169.34375 87.375 C 169.980469 85.742188 171.585938 84.640625 173.339844 84.640625 C 173.875 84.640625 174.398438 84.742188 174.898438 84.933594 C 177.097656 85.785156 178.199219 88.273438 177.34375 90.476562 L 130.039062 212.457031 C 129.402344 214.09375 127.789062 215.195312 126.035156 215.195312 " fill-opacity="1" fill-rule="nonzero"/><g clip-path="url(#c54cc56229)"><path fill="#224c8d" d="M 173.339844 82.816406 C 170.832031 82.816406 168.539062 84.394531 167.640625 86.71875 L 120.328125 208.703125 C 119.742188 210.226562 119.777344 211.882812 120.4375 213.378906 C 121.101562 214.867188 122.300781 216.019531 123.828125 216.601562 C 124.535156 216.878906 125.273438 217.019531 126.035156 217.019531 C 128.542969 217.019531 130.835938 215.449219 131.742188 213.113281 L 179.046875 91.132812 C 180.269531 87.988281 178.699219 84.445312 175.546875 83.234375 C 174.847656 82.957031 174.101562 82.816406 173.339844 82.816406 Z M 173.339844 86.464844 C 173.640625 86.464844 173.941406 86.523438 174.230469 86.632812 C 175.503906 87.121094 176.132812 88.542969 175.640625 89.8125 L 128.328125 211.792969 C 127.957031 212.773438 127.019531 213.371094 126.035156 213.371094 C 125.734375 213.371094 125.4375 213.320312 125.144531 213.203125 C 123.871094 212.714844 123.242188 211.285156 123.738281 210.023438 L 171.046875 88.039062 C 171.425781 87.0625 172.355469 86.464844 173.339844 86.464844 " fill-opacity="1" fill-rule="nonzero"/></g></svg>