<svg xmlns="http://www.w3.org/2000/svg" xmlns:xlink="http://www.w3.org/1999/xlink" width="80" zoomAndPan="magnify" viewBox="0 0 375 374.999991" height="80" preserveAspectRatio="xMidYMid meet" version="1.0"><defs><filter x="0%" y="0%" width="100%" height="100%" id="f7bfa6b2d0"><feColorMatrix values="0 0 0 0 1 0 0 0 0 1 0 0 0 0 1 0 0 0 1 0" color-interpolation-filters="sRGB"/></filter><g/><mask id="fd4064fbba"><g filter="url(#f7bfa6b2d0)"><rect x="-37.5" width="450" fill="#000000" y="-37.499999" height="449.999989" fill-opacity="0.6"/></g></mask><clipPath id="a699858174"><path d="M 0.964844 0.964844 L 350.035156 0.964844 L 350.035156 350.035156 L 0.964844 350.035156 Z M 0.964844 0.964844 " clip-rule="nonzero"/></clipPath><clipPath id="89ca8918e2"><path d="M 175.5 0.964844 C 79.109375 0.964844 0.964844 79.109375 0.964844 175.5 C 0.964844 271.890625 79.109375 350.035156 175.5 350.035156 C 271.890625 350.035156 350.035156 271.890625 350.035156 175.5 C 350.035156 79.109375 271.890625 0.964844 175.5 0.964844 Z M 175.5 0.964844 " clip-rule="nonzero"/></clipPath><clipPath id="ebf7743da1"><rect x="0" width="351" y="0" height="351"/></clipPath></defs><g mask="url(#fd4064fbba)"><g transform="matrix(1, 0, 0, 1, 12, 12)"><g clip-path="url(#ebf7743da1)"><g clip-path="url(#a699858174)"><g clip-path="url(#89ca8918e2)"><path fill="#38b6ff" d="M 0.964844 0.964844 L 350.035156 0.964844 L 350.035156 350.035156 L 0.964844 350.035156 Z M 0.964844 0.964844 " fill-opacity="1" fill-rule="nonzero"/></g></g></g></g></g><g fill="#232f3e" fill-opacity="0.4"><g transform="translate(87.367712, 93.486392)"><g><path d="M 5.84375 -25.59375 L 5.84375 0 L 9.171875 0 L 9.171875 -25.59375 Z M 5.84375 -25.59375 "/></g></g></g><g fill="#232f3e" fill-opacity="0.4"><g transform="translate(123.484062, 93.486392)"><g><path d="M 1.359375 -6.46875 C 1.398438 -5.425781 1.671875 -4.476562 2.171875 -3.625 C 2.671875 -2.769531 3.351562 -2.039062 4.21875 -1.4375 C 5.082031 -0.84375 6.097656 -0.378906 7.265625 -0.046875 C 8.441406 0.273438 9.722656 0.4375 11.109375 0.4375 C 12.523438 0.4375 13.800781 0.269531 14.9375 -0.0625 C 16.070312 -0.40625 17.039062 -0.894531 17.84375 -1.53125 C 18.644531 -2.164062 19.265625 -2.929688 19.703125 -3.828125 C 20.140625 -4.734375 20.359375 -5.738281 20.359375 -6.84375 C 20.359375 -8.351562 19.976562 -9.585938 19.21875 -10.546875 C 18.46875 -11.515625 17.523438 -12.320312 16.390625 -12.96875 C 15.265625 -13.613281 14.035156 -14.15625 12.703125 -14.59375 C 11.378906 -15.03125 10.148438 -15.488281 9.015625 -15.96875 C 7.878906 -16.457031 6.929688 -17.019531 6.171875 -17.65625 C 5.421875 -18.289062 5.046875 -19.132812 5.046875 -20.1875 C 5.046875 -20.769531 5.171875 -21.316406 5.421875 -21.828125 C 5.679688 -22.335938 6.0625 -22.78125 6.5625 -23.15625 C 7.0625 -23.539062 7.675781 -23.847656 8.40625 -24.078125 C 9.132812 -24.304688 9.976562 -24.421875 10.9375 -24.421875 C 12.519531 -24.421875 13.863281 -24.082031 14.96875 -23.40625 C 16.082031 -22.738281 16.734375 -21.6875 16.921875 -20.25 L 19.421875 -20.25 C 19.265625 -21.15625 18.929688 -21.96875 18.421875 -22.6875 C 17.910156 -23.40625 17.265625 -24.015625 16.484375 -24.515625 C 15.703125 -25.015625 14.816406 -25.390625 13.828125 -25.640625 C 12.847656 -25.898438 11.820312 -26.03125 10.75 -26.03125 C 9.625 -26.03125 8.554688 -25.882812 7.546875 -25.59375 C 6.535156 -25.300781 5.644531 -24.875 4.875 -24.3125 C 4.113281 -23.75 3.503906 -23.039062 3.046875 -22.1875 C 2.597656 -21.332031 2.375 -20.359375 2.375 -19.265625 C 2.375 -17.828125 2.738281 -16.671875 3.46875 -15.796875 C 4.195312 -14.921875 5.113281 -14.1875 6.21875 -13.59375 C 7.332031 -13.007812 8.535156 -12.507812 9.828125 -12.09375 C 11.117188 -11.6875 12.316406 -11.21875 13.421875 -10.6875 C 14.535156 -10.164062 15.457031 -9.523438 16.1875 -8.765625 C 16.925781 -8.015625 17.296875 -7.003906 17.296875 -5.734375 C 17.296875 -4.148438 16.71875 -2.992188 15.5625 -2.265625 C 14.40625 -1.535156 12.863281 -1.171875 10.9375 -1.171875 C 9.394531 -1.171875 8.160156 -1.367188 7.234375 -1.765625 C 6.304688 -2.171875 5.597656 -2.65625 5.109375 -3.21875 C 4.628906 -3.78125 4.300781 -4.359375 4.125 -4.953125 C 3.957031 -5.546875 3.863281 -6.050781 3.84375 -6.46875 Z M 1.359375 -6.46875 "/></g></g></g><g fill="#232f3e" fill-opacity="0.4"><g transform="translate(167.422287, 93.486392)"><g><path d="M 18.609375 -7.53125 L 22.125 0 L 25.671875 0 L 13.75 -25.59375 L 11.921875 -25.59375 L 1.09375 0 L 2.78125 0 L 6 -7.53125 Z M 17.84375 -9.171875 L 6.6875 -9.171875 L 11.953125 -21.5 L 12.109375 -21.5 Z M 17.84375 -9.171875 "/></g></g></g><g fill="#232f3e" fill-opacity="0.4"><g transform="translate(215.271451, 93.486392)"><g><path d="M 18.609375 -7.53125 L 22.125 0 L 25.671875 0 L 13.75 -25.59375 L 11.921875 -25.59375 L 1.09375 0 L 2.78125 0 L 6 -7.53125 Z M 17.84375 -9.171875 L 6.6875 -9.171875 L 11.953125 -21.5 L 12.109375 -21.5 Z M 17.84375 -9.171875 "/></g></g></g><g fill="#232f3e" fill-opacity="0.4"><g transform="translate(263.120615, 93.486392)"><g><path d="M 25.921875 -4.71875 C 23.429688 -2.375 20.484375 -1.203125 17.078125 -1.203125 C 15.171875 -1.203125 13.484375 -1.53125 12.015625 -2.1875 C 10.554688 -2.851562 9.335938 -3.734375 8.359375 -4.828125 C 7.390625 -5.921875 6.65625 -7.1875 6.15625 -8.625 C 5.65625 -10.0625 5.40625 -11.5625 5.40625 -13.125 C 5.40625 -14.78125 5.664062 -16.296875 6.1875 -17.671875 C 6.71875 -19.054688 7.457031 -20.242188 8.40625 -21.234375 C 9.351562 -22.234375 10.476562 -23.015625 11.78125 -23.578125 C 13.09375 -24.140625 14.515625 -24.421875 16.046875 -24.421875 C 17.097656 -24.421875 18.054688 -24.296875 18.921875 -24.046875 C 19.785156 -23.804688 20.550781 -23.488281 21.21875 -23.09375 C 21.894531 -22.707031 22.445312 -22.265625 22.875 -21.765625 C 23.300781 -21.265625 23.597656 -20.757812 23.765625 -20.25 L 26.46875 -20.25 C 26.101562 -21.082031 25.632812 -21.851562 25.0625 -22.5625 C 24.488281 -23.269531 23.773438 -23.878906 22.921875 -24.390625 C 22.066406 -24.898438 21.066406 -25.300781 19.921875 -25.59375 C 18.773438 -25.882812 17.472656 -26.03125 16.015625 -26.03125 C 13.890625 -26.03125 11.957031 -25.722656 10.21875 -25.109375 C 8.476562 -24.503906 6.984375 -23.632812 5.734375 -22.5 C 4.492188 -21.363281 3.53125 -20 2.84375 -18.40625 C 2.164062 -16.8125 1.828125 -15.023438 1.828125 -13.046875 C 1.828125 -11.347656 2.097656 -9.6875 2.640625 -8.0625 C 3.191406 -6.4375 4.039062 -4.992188 5.1875 -3.734375 C 6.332031 -2.484375 7.796875 -1.472656 9.578125 -0.703125 C 11.359375 0.0546875 13.476562 0.4375 15.9375 0.4375 C 17.5 0.4375 18.894531 0.289062 20.125 0 C 21.351562 -0.289062 22.425781 -0.648438 23.34375 -1.078125 C 24.257812 -1.503906 25.019531 -1.960938 25.625 -2.453125 C 26.238281 -2.941406 26.703125 -3.367188 27.015625 -3.734375 Z M 25.921875 -4.71875 "/></g></g></g><g fill="#232f3e" fill-opacity="1"><g transform="translate(85.752061, 91.870741)"><g><path d="M 5.84375 -25.59375 L 5.84375 0 L 9.171875 0 L 9.171875 -25.59375 Z M 5.84375 -25.59375 "/></g></g></g><g fill="#232f3e" fill-opacity="1"><g transform="translate(121.86841, 91.870741)"><g><path d="M 1.359375 -6.46875 C 1.398438 -5.425781 1.671875 -4.476562 2.171875 -3.625 C 2.671875 -2.769531 3.351562 -2.039062 4.21875 -1.4375 C 5.082031 -0.84375 6.097656 -0.378906 7.265625 -0.046875 C 8.441406 0.273438 9.722656 0.4375 11.109375 0.4375 C 12.523438 0.4375 13.800781 0.269531 14.9375 -0.0625 C 16.070312 -0.40625 17.039062 -0.894531 17.84375 -1.53125 C 18.644531 -2.164062 19.265625 -2.929688 19.703125 -3.828125 C 20.140625 -4.734375 20.359375 -5.738281 20.359375 -6.84375 C 20.359375 -8.351562 19.976562 -9.585938 19.21875 -10.546875 C 18.46875 -11.515625 17.523438 -12.320312 16.390625 -12.96875 C 15.265625 -13.613281 14.035156 -14.15625 12.703125 -14.59375 C 11.378906 -15.03125 10.148438 -15.488281 9.015625 -15.96875 C 7.878906 -16.457031 6.929688 -17.019531 6.171875 -17.65625 C 5.421875 -18.289062 5.046875 -19.132812 5.046875 -20.1875 C 5.046875 -20.769531 5.171875 -21.316406 5.421875 -21.828125 C 5.679688 -22.335938 6.0625 -22.78125 6.5625 -23.15625 C 7.0625 -23.539062 7.675781 -23.847656 8.40625 -24.078125 C 9.132812 -24.304688 9.976562 -24.421875 10.9375 -24.421875 C 12.519531 -24.421875 13.863281 -24.082031 14.96875 -23.40625 C 16.082031 -22.738281 16.734375 -21.6875 16.921875 -20.25 L 19.421875 -20.25 C 19.265625 -21.15625 18.929688 -21.96875 18.421875 -22.6875 C 17.910156 -23.40625 17.265625 -24.015625 16.484375 -24.515625 C 15.703125 -25.015625 14.816406 -25.390625 13.828125 -25.640625 C 12.847656 -25.898438 11.820312 -26.03125 10.75 -26.03125 C 9.625 -26.03125 8.554688 -25.882812 7.546875 -25.59375 C 6.535156 -25.300781 5.644531 -24.875 4.875 -24.3125 C 4.113281 -23.75 3.503906 -23.039062 3.046875 -22.1875 C 2.597656 -21.332031 2.375 -20.359375 2.375 -19.265625 C 2.375 -17.828125 2.738281 -16.671875 3.46875 -15.796875 C 4.195312 -14.921875 5.113281 -14.1875 6.21875 -13.59375 C 7.332031 -13.007812 8.535156 -12.507812 9.828125 -12.09375 C 11.117188 -11.6875 12.316406 -11.21875 13.421875 -10.6875 C 14.535156 -10.164062 15.457031 -9.523438 16.1875 -8.765625 C 16.925781 -8.015625 17.296875 -7.003906 17.296875 -5.734375 C 17.296875 -4.148438 16.71875 -2.992188 15.5625 -2.265625 C 14.40625 -1.535156 12.863281 -1.171875 10.9375 -1.171875 C 9.394531 -1.171875 8.160156 -1.367188 7.234375 -1.765625 C 6.304688 -2.171875 5.597656 -2.65625 5.109375 -3.21875 C 4.628906 -3.78125 4.300781 -4.359375 4.125 -4.953125 C 3.957031 -5.546875 3.863281 -6.050781 3.84375 -6.46875 Z M 1.359375 -6.46875 "/></g></g></g><g fill="#232f3e" fill-opacity="1"><g transform="translate(165.806636, 91.870741)"><g><path d="M 18.609375 -7.53125 L 22.125 0 L 25.671875 0 L 13.75 -25.59375 L 11.921875 -25.59375 L 1.09375 0 L 2.78125 0 L 6 -7.53125 Z M 17.84375 -9.171875 L 6.6875 -9.171875 L 11.953125 -21.5 L 12.109375 -21.5 Z M 17.84375 -9.171875 "/></g></g></g><g fill="#232f3e" fill-opacity="1"><g transform="translate(213.6558, 91.870741)"><g><path d="M 18.609375 -7.53125 L 22.125 0 L 25.671875 0 L 13.75 -25.59375 L 11.921875 -25.59375 L 1.09375 0 L 2.78125 0 L 6 -7.53125 Z M 17.84375 -9.171875 L 6.6875 -9.171875 L 11.953125 -21.5 L 12.109375 -21.5 Z M 17.84375 -9.171875 "/></g></g></g><g fill="#232f3e" fill-opacity="1"><g transform="translate(261.504964, 91.870741)"><g><path d="M 25.921875 -4.71875 C 23.429688 -2.375 20.484375 -1.203125 17.078125 -1.203125 C 15.171875 -1.203125 13.484375 -1.53125 12.015625 -2.1875 C 10.554688 -2.851562 9.335938 -3.734375 8.359375 -4.828125 C 7.390625 -5.921875 6.65625 -7.1875 6.15625 -8.625 C 5.65625 -10.0625 5.40625 -11.5625 5.40625 -13.125 C 5.40625 -14.78125 5.664062 -16.296875 6.1875 -17.671875 C 6.71875 -19.054688 7.457031 -20.242188 8.40625 -21.234375 C 9.351562 -22.234375 10.476562 -23.015625 11.78125 -23.578125 C 13.09375 -24.140625 14.515625 -24.421875 16.046875 -24.421875 C 17.097656 -24.421875 18.054688 -24.296875 18.921875 -24.046875 C 19.785156 -23.804688 20.550781 -23.488281 21.21875 -23.09375 C 21.894531 -22.707031 22.445312 -22.265625 22.875 -21.765625 C 23.300781 -21.265625 23.597656 -20.757812 23.765625 -20.25 L 26.46875 -20.25 C 26.101562 -21.082031 25.632812 -21.851562 25.0625 -22.5625 C 24.488281 -23.269531 23.773438 -23.878906 22.921875 -24.390625 C 22.066406 -24.898438 21.066406 -25.300781 19.921875 -25.59375 C 18.773438 -25.882812 17.472656 -26.03125 16.015625 -26.03125 C 13.890625 -26.03125 11.957031 -25.722656 10.21875 -25.109375 C 8.476562 -24.503906 6.984375 -23.632812 5.734375 -22.5 C 4.492188 -21.363281 3.53125 -20 2.84375 -18.40625 C 2.164062 -16.8125 1.828125 -15.023438 1.828125 -13.046875 C 1.828125 -11.347656 2.097656 -9.6875 2.640625 -8.0625 C 3.191406 -6.4375 4.039062 -4.992188 5.1875 -3.734375 C 6.332031 -2.484375 7.796875 -1.472656 9.578125 -0.703125 C 11.359375 0.0546875 13.476562 0.4375 15.9375 0.4375 C 17.5 0.4375 18.894531 0.289062 20.125 0 C 21.351562 -0.289062 22.425781 -0.648438 23.34375 -1.078125 C 24.257812 -1.503906 25.019531 -1.960938 25.625 -2.453125 C 26.238281 -2.941406 26.703125 -3.367188 27.015625 -3.734375 Z M 25.921875 -4.71875 "/></g></g></g><g fill="#232f3e" fill-opacity="0.4"><g transform="translate(107.450709, 153.325168)"><g><path d="M 2.21875 -18.484375 C 2.21875 -24.140625 3.3125 -28.59375 5.5 -31.84375 C 7.6875 -35.09375 11.210938 -36.71875 16.078125 -36.71875 C 20.929688 -36.71875 24.453125 -35.09375 26.640625 -31.84375 C 28.828125 -28.59375 29.921875 -24.140625 29.921875 -18.484375 C 29.921875 -12.765625 28.828125 -8.273438 26.640625 -5.015625 C 24.453125 -1.765625 20.929688 -0.140625 16.078125 -0.140625 C 11.210938 -0.140625 7.6875 -1.765625 5.5 -5.015625 C 3.3125 -8.273438 2.21875 -12.765625 2.21875 -18.484375 Z M 21.640625 -18.484375 C 21.640625 -21.804688 21.273438 -24.363281 20.546875 -26.15625 C 19.828125 -27.945312 18.335938 -28.84375 16.078125 -28.84375 C 13.804688 -28.84375 12.304688 -27.945312 11.578125 -26.15625 C 10.859375 -24.363281 10.5 -21.804688 10.5 -18.484375 C 10.5 -16.253906 10.628906 -14.40625 10.890625 -12.9375 C 11.148438 -11.476562 11.679688 -10.296875 12.484375 -9.390625 C 13.296875 -8.484375 14.492188 -8.03125 16.078125 -8.03125 C 17.648438 -8.03125 18.835938 -8.484375 19.640625 -9.390625 C 20.453125 -10.296875 20.988281 -11.476562 21.25 -12.9375 C 21.507812 -14.40625 21.640625 -16.253906 21.640625 -18.484375 Z M 21.640625 -18.484375 "/></g></g></g><g fill="#232f3e" fill-opacity="0.4"><g transform="translate(161.622987, 153.325168)"><g><path d="M 1.328125 -28.15625 L 1.328125 -35.984375 L 14.984375 -35.984375 L 14.984375 0 L 6.21875 0 L 6.21875 -28.15625 Z M 1.328125 -28.15625 "/></g></g></g><g fill="#232f3e" fill-opacity="1"><g transform="translate(105.272172, 151.146631)"><g><path d="M 2.21875 -18.484375 C 2.21875 -24.140625 3.3125 -28.59375 5.5 -31.84375 C 7.6875 -35.09375 11.210938 -36.71875 16.078125 -36.71875 C 20.929688 -36.71875 24.453125 -35.09375 26.640625 -31.84375 C 28.828125 -28.59375 29.921875 -24.140625 29.921875 -18.484375 C 29.921875 -12.765625 28.828125 -8.273438 26.640625 -5.015625 C 24.453125 -1.765625 20.929688 -0.140625 16.078125 -0.140625 C 11.210938 -0.140625 7.6875 -1.765625 5.5 -5.015625 C 3.3125 -8.273438 2.21875 -12.765625 2.21875 -18.484375 Z M 21.640625 -18.484375 C 21.640625 -21.804688 21.273438 -24.363281 20.546875 -26.15625 C 19.828125 -27.945312 18.335938 -28.84375 16.078125 -28.84375 C 13.804688 -28.84375 12.304688 -27.945312 11.578125 -26.15625 C 10.859375 -24.363281 10.5 -21.804688 10.5 -18.484375 C 10.5 -16.253906 10.628906 -14.40625 10.890625 -12.9375 C 11.148438 -11.476562 11.679688 -10.296875 12.484375 -9.390625 C 13.296875 -8.484375 14.492188 -8.03125 16.078125 -8.03125 C 17.648438 -8.03125 18.835938 -8.484375 19.640625 -9.390625 C 20.453125 -10.296875 20.988281 -11.476562 21.25 -12.9375 C 21.507812 -14.40625 21.640625 -16.253906 21.640625 -18.484375 Z M 21.640625 -18.484375 "/></g></g></g><g fill="#232f3e" fill-opacity="1"><g transform="translate(159.44445, 151.146631)"><g><path d="M 1.328125 -28.15625 L 1.328125 -35.984375 L 14.984375 -35.984375 L 14.984375 0 L 6.21875 0 L 6.21875 -28.15625 Z M 1.328125 -28.15625 "/></g></g></g><g fill="#232f3e" fill-opacity="0.4"><g transform="translate(193.489372, 153.325168)"><g><path d="M 2.21875 -18.484375 C 2.21875 -24.140625 3.3125 -28.59375 5.5 -31.84375 C 7.6875 -35.09375 11.210938 -36.71875 16.078125 -36.71875 C 20.929688 -36.71875 24.453125 -35.09375 26.640625 -31.84375 C 28.828125 -28.59375 29.921875 -24.140625 29.921875 -18.484375 C 29.921875 -12.765625 28.828125 -8.273438 26.640625 -5.015625 C 24.453125 -1.765625 20.929688 -0.140625 16.078125 -0.140625 C 11.210938 -0.140625 7.6875 -1.765625 5.5 -5.015625 C 3.3125 -8.273438 2.21875 -12.765625 2.21875 -18.484375 Z M 21.640625 -18.484375 C 21.640625 -21.804688 21.273438 -24.363281 20.546875 -26.15625 C 19.828125 -27.945312 18.335938 -28.84375 16.078125 -28.84375 C 13.804688 -28.84375 12.304688 -27.945312 11.578125 -26.15625 C 10.859375 -24.363281 10.5 -21.804688 10.5 -18.484375 C 10.5 -16.253906 10.628906 -14.40625 10.890625 -12.9375 C 11.148438 -11.476562 11.679688 -10.296875 12.484375 -9.390625 C 13.296875 -8.484375 14.492188 -8.03125 16.078125 -8.03125 C 17.648438 -8.03125 18.835938 -8.484375 19.640625 -9.390625 C 20.453125 -10.296875 20.988281 -11.476562 21.25 -12.9375 C 21.507812 -14.40625 21.640625 -16.253906 21.640625 -18.484375 Z M 21.640625 -18.484375 "/></g></g></g><g fill="#232f3e" fill-opacity="0.4"><g transform="translate(247.66165, 153.325168)"><g><path d="M 1.328125 -28.15625 L 1.328125 -35.984375 L 14.984375 -35.984375 L 14.984375 0 L 6.21875 0 L 6.21875 -28.15625 Z M 1.328125 -28.15625 "/></g></g></g><g fill="#232f3e" fill-opacity="1"><g transform="translate(191.310842, 151.146631)"><g><path d="M 2.21875 -18.484375 C 2.21875 -24.140625 3.3125 -28.59375 5.5 -31.84375 C 7.6875 -35.09375 11.210938 -36.71875 16.078125 -36.71875 C 20.929688 -36.71875 24.453125 -35.09375 26.640625 -31.84375 C 28.828125 -28.59375 29.921875 -24.140625 29.921875 -18.484375 C 29.921875 -12.765625 28.828125 -8.273438 26.640625 -5.015625 C 24.453125 -1.765625 20.929688 -0.140625 16.078125 -0.140625 C 11.210938 -0.140625 7.6875 -1.765625 5.5 -5.015625 C 3.3125 -8.273438 2.21875 -12.765625 2.21875 -18.484375 Z M 21.640625 -18.484375 C 21.640625 -21.804688 21.273438 -24.363281 20.546875 -26.15625 C 19.828125 -27.945312 18.335938 -28.84375 16.078125 -28.84375 C 13.804688 -28.84375 12.304688 -27.945312 11.578125 -26.15625 C 10.859375 -24.363281 10.5 -21.804688 10.5 -18.484375 C 10.5 -16.253906 10.628906 -14.40625 10.890625 -12.9375 C 11.148438 -11.476562 11.679688 -10.296875 12.484375 -9.390625 C 13.296875 -8.484375 14.492188 -8.03125 16.078125 -8.03125 C 17.648438 -8.03125 18.835938 -8.484375 19.640625 -9.390625 C 20.453125 -10.296875 20.988281 -11.476562 21.25 -12.9375 C 21.507812 -14.40625 21.640625 -16.253906 21.640625 -18.484375 Z M 21.640625 -18.484375 "/></g></g></g><g fill="#232f3e" fill-opacity="1"><g transform="translate(245.483119, 151.146631)"><g><path d="M 1.328125 -28.15625 L 1.328125 -35.984375 L 14.984375 -35.984375 L 14.984375 0 L 6.21875 0 L 6.21875 -28.15625 Z M 1.328125 -28.15625 "/></g></g></g><g fill="#232f3e" fill-opacity="0.4"><g transform="translate(136.632872, 207.065792)"><g><path d="M 1.328125 -28.15625 L 1.328125 -35.984375 L 14.984375 -35.984375 L 14.984375 0 L 6.21875 0 L 6.21875 -28.15625 Z M 1.328125 -28.15625 "/></g></g></g><g fill="#232f3e" fill-opacity="1"><g transform="translate(134.454335, 204.887262)"><g><path d="M 1.328125 -28.15625 L 1.328125 -35.984375 L 14.984375 -35.984375 L 14.984375 0 L 6.21875 0 L 6.21875 -28.15625 Z M 1.328125 -28.15625 "/></g></g></g><g fill="#232f3e" fill-opacity="0.4"><g transform="translate(169.552011, 207.065792)"><g><path d="M 2.21875 -18.484375 C 2.21875 -24.140625 3.3125 -28.59375 5.5 -31.84375 C 7.6875 -35.09375 11.210938 -36.71875 16.078125 -36.71875 C 20.929688 -36.71875 24.453125 -35.09375 26.640625 -31.84375 C 28.828125 -28.59375 29.921875 -24.140625 29.921875 -18.484375 C 29.921875 -12.765625 28.828125 -8.273438 26.640625 -5.015625 C 24.453125 -1.765625 20.929688 -0.140625 16.078125 -0.140625 C 11.210938 -0.140625 7.6875 -1.765625 5.5 -5.015625 C 3.3125 -8.273438 2.21875 -12.765625 2.21875 -18.484375 Z M 21.640625 -18.484375 C 21.640625 -21.804688 21.273438 -24.363281 20.546875 -26.15625 C 19.828125 -27.945312 18.335938 -28.84375 16.078125 -28.84375 C 13.804688 -28.84375 12.304688 -27.945312 11.578125 -26.15625 C 10.859375 -24.363281 10.5 -21.804688 10.5 -18.484375 C 10.5 -16.253906 10.628906 -14.40625 10.890625 -12.9375 C 11.148438 -11.476562 11.679688 -10.296875 12.484375 -9.390625 C 13.296875 -8.484375 14.492188 -8.03125 16.078125 -8.03125 C 17.648438 -8.03125 18.835938 -8.484375 19.640625 -9.390625 C 20.453125 -10.296875 20.988281 -11.476562 21.25 -12.9375 C 21.507812 -14.40625 21.640625 -16.253906 21.640625 -18.484375 Z M 21.640625 -18.484375 "/></g></g></g><g fill="#232f3e" fill-opacity="0.4"><g transform="translate(223.724289, 207.065792)"><g><path d="M 1.328125 -28.15625 L 1.328125 -35.984375 L 14.984375 -35.984375 L 14.984375 0 L 6.21875 0 L 6.21875 -28.15625 Z M 1.328125 -28.15625 "/></g></g></g><g fill="#232f3e" fill-opacity="1"><g transform="translate(167.373481, 204.887262)"><g><path d="M 2.21875 -18.484375 C 2.21875 -24.140625 3.3125 -28.59375 5.5 -31.84375 C 7.6875 -35.09375 11.210938 -36.71875 16.078125 -36.71875 C 20.929688 -36.71875 24.453125 -35.09375 26.640625 -31.84375 C 28.828125 -28.59375 29.921875 -24.140625 29.921875 -18.484375 C 29.921875 -12.765625 28.828125 -8.273438 26.640625 -5.015625 C 24.453125 -1.765625 20.929688 -0.140625 16.078125 -0.140625 C 11.210938 -0.140625 7.6875 -1.765625 5.5 -5.015625 C 3.3125 -8.273438 2.21875 -12.765625 2.21875 -18.484375 Z M 21.640625 -18.484375 C 21.640625 -21.804688 21.273438 -24.363281 20.546875 -26.15625 C 19.828125 -27.945312 18.335938 -28.84375 16.078125 -28.84375 C 13.804688 -28.84375 12.304688 -27.945312 11.578125 -26.15625 C 10.859375 -24.363281 10.5 -21.804688 10.5 -18.484375 C 10.5 -16.253906 10.628906 -14.40625 10.890625 -12.9375 C 11.148438 -11.476562 11.679688 -10.296875 12.484375 -9.390625 C 13.296875 -8.484375 14.492188 -8.03125 16.078125 -8.03125 C 17.648438 -8.03125 18.835938 -8.484375 19.640625 -9.390625 C 20.453125 -10.296875 20.988281 -11.476562 21.25 -12.9375 C 21.507812 -14.40625 21.640625 -16.253906 21.640625 -18.484375 Z M 21.640625 -18.484375 "/></g></g></g><g fill="#232f3e" fill-opacity="1"><g transform="translate(221.545758, 204.887262)"><g><path d="M 1.328125 -28.15625 L 1.328125 -35.984375 L 14.984375 -35.984375 L 14.984375 0 L 6.21875 0 L 6.21875 -28.15625 Z M 1.328125 -28.15625 "/></g></g></g><g fill="#232f3e" fill-opacity="0.4"><g transform="translate(148.970035, 260.903234)"><g><path d="M 2.21875 -18.484375 C 2.21875 -24.140625 3.3125 -28.59375 5.5 -31.84375 C 7.6875 -35.09375 11.210938 -36.71875 16.078125 -36.71875 C 20.929688 -36.71875 24.453125 -35.09375 26.640625 -31.84375 C 28.828125 -28.59375 29.921875 -24.140625 29.921875 -18.484375 C 29.921875 -12.765625 28.828125 -8.273438 26.640625 -5.015625 C 24.453125 -1.765625 20.929688 -0.140625 16.078125 -0.140625 C 11.210938 -0.140625 7.6875 -1.765625 5.5 -5.015625 C 3.3125 -8.273438 2.21875 -12.765625 2.21875 -18.484375 Z M 21.640625 -18.484375 C 21.640625 -21.804688 21.273438 -24.363281 20.546875 -26.15625 C 19.828125 -27.945312 18.335938 -28.84375 16.078125 -28.84375 C 13.804688 -28.84375 12.304688 -27.945312 11.578125 -26.15625 C 10.859375 -24.363281 10.5 -21.804688 10.5 -18.484375 C 10.5 -16.253906 10.628906 -14.40625 10.890625 -12.9375 C 11.148438 -11.476562 11.679688 -10.296875 12.484375 -9.390625 C 13.296875 -8.484375 14.492188 -8.03125 16.078125 -8.03125 C 17.648438 -8.03125 18.835938 -8.484375 19.640625 -9.390625 C 20.453125 -10.296875 20.988281 -11.476562 21.25 -12.9375 C 21.507812 -14.40625 21.640625 -16.253906 21.640625 -18.484375 Z M 21.640625 -18.484375 "/></g></g></g><g fill="#232f3e" fill-opacity="0.4"><g transform="translate(203.142312, 260.903234)"><g><path d="M 1.328125 -28.15625 L 1.328125 -35.984375 L 14.984375 -35.984375 L 14.984375 0 L 6.21875 0 L 6.21875 -28.15625 Z M 1.328125 -28.15625 "/></g></g></g><g fill="#232f3e" fill-opacity="1"><g transform="translate(146.791504, 258.724704)"><g><path d="M 2.21875 -18.484375 C 2.21875 -24.140625 3.3125 -28.59375 5.5 -31.84375 C 7.6875 -35.09375 11.210938 -36.71875 16.078125 -36.71875 C 20.929688 -36.71875 24.453125 -35.09375 26.640625 -31.84375 C 28.828125 -28.59375 29.921875 -24.140625 29.921875 -18.484375 C 29.921875 -12.765625 28.828125 -8.273438 26.640625 -5.015625 C 24.453125 -1.765625 20.929688 -0.140625 16.078125 -0.140625 C 11.210938 -0.140625 7.6875 -1.765625 5.5 -5.015625 C 3.3125 -8.273438 2.21875 -12.765625 2.21875 -18.484375 Z M 21.640625 -18.484375 C 21.640625 -21.804688 21.273438 -24.363281 20.546875 -26.15625 C 19.828125 -27.945312 18.335938 -28.84375 16.078125 -28.84375 C 13.804688 -28.84375 12.304688 -27.945312 11.578125 -26.15625 C 10.859375 -24.363281 10.5 -21.804688 10.5 -18.484375 C 10.5 -16.253906 10.628906 -14.40625 10.890625 -12.9375 C 11.148438 -11.476562 11.679688 -10.296875 12.484375 -9.390625 C 13.296875 -8.484375 14.492188 -8.03125 16.078125 -8.03125 C 17.648438 -8.03125 18.835938 -8.484375 19.640625 -9.390625 C 20.453125 -10.296875 20.988281 -11.476562 21.25 -12.9375 C 21.507812 -14.40625 21.640625 -16.253906 21.640625 -18.484375 Z M 21.640625 -18.484375 "/></g></g></g><g fill="#232f3e" fill-opacity="1"><g transform="translate(200.963782, 258.724704)"><g><path d="M 1.328125 -28.15625 L 1.328125 -35.984375 L 14.984375 -35.984375 L 14.984375 0 L 6.21875 0 L 6.21875 -28.15625 Z M 1.328125 -28.15625 "/></g></g></g><g fill="#232f3e" fill-opacity="0.4"><g transform="translate(169.246712, 314.192005)"><g><path d="M 2.21875 -18.484375 C 2.21875 -24.140625 3.3125 -28.59375 5.5 -31.84375 C 7.6875 -35.09375 11.210938 -36.71875 16.078125 -36.71875 C 20.929688 -36.71875 24.453125 -35.09375 26.640625 -31.84375 C 28.828125 -28.59375 29.921875 -24.140625 29.921875 -18.484375 C 29.921875 -12.765625 28.828125 -8.273438 26.640625 -5.015625 C 24.453125 -1.765625 20.929688 -0.140625 16.078125 -0.140625 C 11.210938 -0.140625 7.6875 -1.765625 5.5 -5.015625 C 3.3125 -8.273438 2.21875 -12.765625 2.21875 -18.484375 Z M 21.640625 -18.484375 C 21.640625 -21.804688 21.273438 -24.363281 20.546875 -26.15625 C 19.828125 -27.945312 18.335938 -28.84375 16.078125 -28.84375 C 13.804688 -28.84375 12.304688 -27.945312 11.578125 -26.15625 C 10.859375 -24.363281 10.5 -21.804688 10.5 -18.484375 C 10.5 -16.253906 10.628906 -14.40625 10.890625 -12.9375 C 11.148438 -11.476562 11.679688 -10.296875 12.484375 -9.390625 C 13.296875 -8.484375 14.492188 -8.03125 16.078125 -8.03125 C 17.648438 -8.03125 18.835938 -8.484375 19.640625 -9.390625 C 20.453125 -10.296875 20.988281 -11.476562 21.25 -12.9375 C 21.507812 -14.40625 21.640625 -16.253906 21.640625 -18.484375 Z M 21.640625 -18.484375 "/></g></g></g><g fill="#232f3e" fill-opacity="1"><g transform="translate(167.068182, 312.01346)"><g><path d="M 2.21875 -18.484375 C 2.21875 -24.140625 3.3125 -28.59375 5.5 -31.84375 C 7.6875 -35.09375 11.210938 -36.71875 16.078125 -36.71875 C 20.929688 -36.71875 24.453125 -35.09375 26.640625 -31.84375 C 28.828125 -28.59375 29.921875 -24.140625 29.921875 -18.484375 C 29.921875 -12.765625 28.828125 -8.273438 26.640625 -5.015625 C 24.453125 -1.765625 20.929688 -0.140625 16.078125 -0.140625 C 11.210938 -0.140625 7.6875 -1.765625 5.5 -5.015625 C 3.3125 -8.273438 2.21875 -12.765625 2.21875 -18.484375 Z M 21.640625 -18.484375 C 21.640625 -21.804688 21.273438 -24.363281 20.546875 -26.15625 C 19.828125 -27.945312 18.335938 -28.84375 16.078125 -28.84375 C 13.804688 -28.84375 12.304688 -27.945312 11.578125 -26.15625 C 10.859375 -24.363281 10.5 -21.804688 10.5 -18.484375 C 10.5 -16.253906 10.628906 -14.40625 10.890625 -12.9375 C 11.148438 -11.476562 11.679688 -10.296875 12.484375 -9.390625 C 13.296875 -8.484375 14.492188 -8.03125 16.078125 -8.03125 C 17.648438 -8.03125 18.835938 -8.484375 19.640625 -9.390625 C 20.453125 -10.296875 20.988281 -11.476562 21.25 -12.9375 C 21.507812 -14.40625 21.640625 -16.253906 21.640625 -18.484375 Z M 21.640625 -18.484375 "/></g></g></g></svg>